#!OML:ASF F:\VICON\USERDATA\INSTALL\Justin_Nancy\Justin_Nancy.ASF
:FULLY-SPECIFIED
:DEGREES
34
root 15.554 17.5731 -14.7105 -2.73123 -9.50188 7.81269
lowerback 9.54557 -0.0216277 -4.26739
upperback -0.382881 -0.504934 0.156154
thorax -5.72803 -0.120152 2.64006
lowerneck -22.3388 -5.30085 -10.3074
upperneck 14.6339 -5.97499 9.90533
head 8.8608 -2.35229 4.24127
rclavicle 2.08475e-014 7.95139e-016
rhumerus -57.8173 7.87044 -95.4577
rradius 117.003
rwrist -13.2147
rhand -5.74224 17.6008
rfingers 7.12502
rthumb 20.0801 -11.3815
lclavicle 2.08475e-014 7.95139e-016
lhumerus -49.755 -4.53732 89.4761
lradius 107.731
lwrist 20.2126
lhand -13.0993 10.9903
lfingers 7.12502
lthumb 12.9974 40.5654
rfemur -24.186 -7.4457 26.9196
rtibia 29.6599
rfoot 4.63793 -1.67176
rtoes 17.139
lfemur 2.7221 -3.26145 -24.5477
ltibia 51.0926
lfoot 5.10973 -11.8353
ltoes -23.8363
35
root 15.5287 17.4979 -14.4117 -3.2863 -9.71093 7.56379
lowerback 10.4045 0.165859 -3.98913
upperback -0.356532 -0.258558 0.220646
thorax -6.20519 0.0035071 2.5217
lowerneck -21.744 -5.37343 -10.4245
upperneck 14.7318 -6.1043 9.89853
head 8.81003 -2.43656 4.2436
rclavicle -2.79044e-014 -1.82882e-014
rhumerus -57.5785 7.85707 -95.2328
rradius 116.978
rwrist -13.5302
rhand -5.9947 17.6711
rfingers 7.12502
rthumb 19.8374 -11.3365
lclavicle -2.79044e-014 -1.82882e-014
lhumerus -50.074 -4.18185 89.7073
lradius 107.751
lwrist 19.9299
lhand -12.9418 11.1837
lfingers 7.12502
lthumb 13.1493 40.7491
rfemur -23.5504 -6.41098 26.9812
rtibia 31.8845
rfoot 2.30865 -2.0436
rtoes 17.6766
lfemur 1.72708 -2.18379 -23.2371
ltibia 53.4678
lfoot 4.60133 -10.3342
ltoes -23.1036
36
root 15.4983 17.4405 -14.1114 -3.74809 -9.86482 6.97739
lowerback 11.0981 0.273647 -3.3944
upperback -0.13581 -0.0510965 0.432211
thorax -6.37734 0.0898671 2.37904
lowerneck -21.7559 -5.51518 -10.3935
upperneck 14.7875 -6.24251 9.56863
head 8.8322 -2.53342 4.10191
rclavicle -4.79568e-015 0
rhumerus -56.8087 8.06812 -94.8808
rradius 116.783
rwrist -13.9224
rhand -6.321 17.9685
rfingers 7.12502
rthumb 19.5237 -11.0713
lclavicle -4.79568e-015 0
lhumerus -50.0889 -3.67776 90.0008
lradius 107.695
lwrist 19.9009
lhand -13.1143 11.3423
lfingers 7.12502
lthumb 12.9831 40.9183
rfemur -22.8789 -5.3196 27.3187
rtibia 33.6642
rfoot 0.327842 -2.80771
rtoes 13.278
lfemur 0.344339 -1.40472 -21.5538
ltibia 55.7336
lfoot 5.61644 -8.86306
ltoes -17.3538
37
root 15.4673 17.3842 -13.8128 -4.15773 -9.80486 6.48855
lowerback 11.6346 0.34847 -2.79351
upperback 0.178329 0.118379 0.506042
thorax -6.35561 0.150644 2.09016
lowerneck -21.9524 -5.61877 -10.1896
upperneck 14.5558 -6.35354 9.28869
head 8.78052 -2.59793 3.94869
rclavicle -2.40032e-014 0
rhumerus -55.497 8.11357 -94.6266
rradius 116.324
rwrist -14.3612
rhand -6.53008 18.0555
rfingers 7.12502
rthumb 19.3227 -11.0045
lclavicle -2.40032e-014 0
lhumerus -49.5562 -3.74045 90.0542
lradius 107.272
lwrist 20.4167
lhand -13.681 11.4513
lfingers 7.12502
lthumb 12.4367 41.0613
rfemur -21.9802 -4.70331 27.5886
rtibia 35.4135
rfoot -2.03324 -3.97574
rtoes 14.6804
lfemur -0.528614 -0.523991 -19.9847
ltibia 57.8636
lfoot 3.29967 -7.5596
ltoes -23.0242
38
root 15.4366 17.3132 -13.5214 -4.31102 -9.6545 5.52986
lowerback 12.2064 0.316473 -1.79067
upperback 0.33192 0.215921 0.732757
thorax -6.51584 0.171361 1.74627
lowerneck -22.0772 -5.6085 -10.2081
upperneck 14.576 -6.31616 9.26002
head 8.80422 -2.58112 3.94648
rclavicle 1.93318e-014 0
rhumerus -54.2778 8.44422 -94.3805
rradius 115.824
rwrist -14.9102
rhand -6.68706 17.6341
rfingers 7.12502
rthumb 19.1718 -11.4409
lclavicle 1.93318e-014 0
lhumerus -49.1532 -3.65038 90.1826
lradius 106.814
lwrist 20.8563
lhand -13.6685 11.5942
lfingers 7.12502
lthumb 12.4488 41.2034
rfemur -21.3571 -4.44092 28.4504
rtibia 37.1459
rfoot -4.13129 -4.40526
rtoes 12.8198
lfemur -2.31545 0.354816 -17.7608
ltibia 60.118
lfoot 0.690838 -5.97919
ltoes -20.9181
39
root 15.4152 17.1958 -13.2364 -4.29318 -9.42395 4.65797
lowerback 12.5474 0.197616 -1.03524
upperback 0.265577 0.184343 1.06539
thorax -6.77517 0.140274 1.67705
lowerneck -21.5821 -5.54565 -10.299
upperneck 14.6216 -6.21685 9.07719
head 8.72044 -2.57196 3.91694
rclavicle -2.3059e-014 -5.56597e-015
rhumerus -53.6485 9.1962 -94.1106
rradius 115.55
rwrist -15.5633
rhand -7.28456 16.9683
rfingers 7.12502
rthumb 18.5971 -12.1627
lclavicle -2.3059e-014 -5.56597e-015
lhumerus -49.4515 -3.00393 90.4694
lradius 106.502
lwrist 21.0134
lhand -12.3684 11.1314
lfingers 7.12502
lthumb 13.702 40.6603
rfemur -21.2705 -4.41323 29.2776
rtibia 39.2046
rfoot -6.04882 -4.5901
rtoes 13.3085
lfemur -4.55603 1.35339 -15.6025
ltibia 62.4372
lfoot -0.337688 -5.56452
ltoes -17.5991
40
root 15.3948 17.0783 -12.9432 -4.09605 -9.05174 3.85777
lowerback 12.4117 0.0537488 -0.305658
upperback 0.282195 0.117973 1.35508
thorax -6.67782 0.088381 1.58175
lowerneck -21.504 -5.49806 -10.355
upperneck 14.7133 -6.11563 8.92096
head 8.7235 -2.54602 3.8882
rclavicle -9.93923e-016 -1.98785e-014
rhumerus -52.6496 10.0045 -93.7716
rradius 115.009
rwrist -16.1162
rhand -7.7442 16.3977
rfingers 7.12502
rthumb 18.155 -12.775
lclavicle -9.93923e-016 -1.98785e-014
lhumerus -49.6377 -2.59948 90.7119
lradius 106.108
lwrist 21.1573
lhand -13.8827 11.989
lfingers 7.12502
lthumb 12.2422 41.6107
rfemur -21.3111 -4.68917 30.0725
rtibia 41.0784
rfoot -8.52858 -5.4096
rtoes 14.67
lfemur -6.59125 2.10404 -13.6664
ltibia 64.5514
lfoot -1.68972 -4.7329
ltoes -19.1831
41
root 15.3704 16.9803 -12.656 -3.81592 -8.70328 3.00708
lowerback 12.4038 -0.0410581 0.426262
upperback 0.262998 0.118246 1.67042
thorax -6.69336 0.0703382 1.50106
lowerneck -21.8824 -5.44376 -10.3
upperneck 14.9489 -5.98182 8.67318
head 8.84386 -2.49675 3.81182
rclavicle 1.32192e-014 2.14687e-014
rhumerus -51.3177 10.8029 -93.3801
rradius 114.289
rwrist -16.4743
rhand -7.76196 15.7238
rfingers 7.12502
rthumb 18.1379 -13.4505
lclavicle 1.32192e-014 2.14687e-014
lhumerus -49.5917 -2.34554 90.9967
lradius 105.484
lwrist 21.1994
lhand -14.7379 12.5073
lfingers 7.12502
lthumb 11.4175 42.1764
rfemur -21.3067 -5.04135 31.0111
rtibia 42.6742
rfoot -9.30038 -6.10489
rtoes 6.8164
lfemur -8.42569 2.70984 -11.7803
ltibia 66.3283
lfoot -3.81286 -4.01425
ltoes -20.6166
42
root 15.3342 16.9234 -12.3776 -3.69395 -8.36618 2.54233
lowerback 12.4912 -0.0898439 0.660097
upperback 0.272078 0.103887 1.89934
thorax -6.73302 0.0596233 1.61405
lowerneck -21.8628 -5.3905 -10.2406
upperneck 15.0147 -5.88661 8.45158
head 8.84333 -2.47272 3.73956
rclavicle 1.1778e-014 -8.74653e-015
rhumerus -50.1429 11.6533 -92.9797
rradius 113.834
rwrist -16.6642
rhand -8.26451 15.5139
rfingers 7.12502
rthumb 17.6543 -13.7046
lclavicle 1.1778e-014 -8.74653e-015
lhumerus -49.6915 -2.0222 91.3482
lradius 104.916
lwrist 20.8267
lhand -15.2097 12.0355
lfingers 7.12502
lthumb 10.9625 41.7293
rfemur -20.9544 -5.54766 31.5719
rtibia 43.9524
rfoot -11.2094 -6.56163
rtoes 7.63907
lfemur -10.3465 3.30751 -10.4988
ltibia 67.6167
lfoot -4.98447 -3.088
ltoes -19.7058
43
root 15.2958 16.8802 -12.1001 -3.64918 -7.90162 2.32008
lowerback 12.4749 -0.10834 0.691297
upperback 0.373234 0.0878566 1.99492
thorax -6.61611 0.051836 1.69928
lowerneck -21.8365 -5.4589 -10.1639
upperneck 14.9921 -6.00566 8.44914
head 8.84063 -2.5247 3.70829
rclavicle -2.17669e-014 -2.94201e-014
rhumerus -48.9678 12.2894 -92.5948
rradius 113.677
rwrist -16.6982
rhand -8.85286 15.6674
rfingers 7.12502
rthumb 17.0881 -13.6011
lclavicle -2.17669e-014 -2.94201e-014
lhumerus -49.862 -1.9525 91.6512
lradius 104.607
lwrist 20.4885
lhand -15.3691 11.9658
lfingers 7.12502
lthumb 10.8088 41.6677
rfemur -20.4018 -6.21568 31.8521
rtibia 44.9643
rfoot -12.2061 -7.61491
rtoes 1.21531
lfemur -12.5466 3.68139 -9.64806
ltibia 68.4621
lfoot -5.05186 -2.2722
ltoes -16.1897
